<mxfile host="Electron" modified="2024-03-12T03:06:43.892Z" agent="Mozilla/5.0 (Windows NT 10.0; Win64; x64) AppleWebKit/537.36 (KHTML, like Gecko) draw.io/22.1.21 Chrome/120.0.6099.109 Electron/28.1.0 Safari/537.36" etag="nqQgrIFvhsB2ft-N42-6" version="22.1.21" type="device">
  <diagram name="Page-1" id="j9ZH632fr8pKnF2mdm34">
    <mxGraphModel dx="880" dy="1701" grid="1" gridSize="10" guides="1" tooltips="1" connect="1" arrows="1" fold="1" page="1" pageScale="1" pageWidth="827" pageHeight="1169" math="0" shadow="0">
      <root>
        <mxCell id="0" />
        <mxCell id="1" parent="0" />
        <mxCell id="q9S4o-dT0F2zTEYb0Q2K-1" value="" style="endArrow=classic;html=1;rounded=0;" edge="1" parent="1">
          <mxGeometry width="50" height="50" relative="1" as="geometry">
            <mxPoint x="152.5" y="100" as="sourcePoint" />
            <mxPoint x="152.5" y="-100" as="targetPoint" />
          </mxGeometry>
        </mxCell>
        <mxCell id="q9S4o-dT0F2zTEYb0Q2K-2" value="" style="endArrow=classic;html=1;rounded=0;" edge="1" parent="1">
          <mxGeometry width="50" height="50" relative="1" as="geometry">
            <mxPoint x="152.5" y="100" as="sourcePoint" />
            <mxPoint x="482.5" y="100" as="targetPoint" />
          </mxGeometry>
        </mxCell>
        <mxCell id="q9S4o-dT0F2zTEYb0Q2K-3" value="9" style="rounded=0;whiteSpace=wrap;html=1;" vertex="1" parent="1">
          <mxGeometry x="152.5" y="60" width="50" height="40" as="geometry" />
        </mxCell>
        <mxCell id="q9S4o-dT0F2zTEYb0Q2K-4" value="3" style="rounded=0;whiteSpace=wrap;html=1;fillColor=#f5f5f5;gradientColor=#b3b3b3;strokeColor=#666666;" vertex="1" parent="1">
          <mxGeometry x="202.5" y="60" width="50" height="40" as="geometry" />
        </mxCell>
        <mxCell id="q9S4o-dT0F2zTEYb0Q2K-5" value="2" style="rounded=0;whiteSpace=wrap;html=1;fillColor=#f5f5f5;fontColor=#333333;strokeColor=#666666;" vertex="1" parent="1">
          <mxGeometry x="252.5" y="60" width="50" height="40" as="geometry" />
        </mxCell>
        <mxCell id="q9S4o-dT0F2zTEYb0Q2K-6" value="4" style="rounded=0;whiteSpace=wrap;html=1;fillColor=#f5f5f5;gradientColor=#b3b3b3;strokeColor=#666666;" vertex="1" parent="1">
          <mxGeometry x="302.5" y="60" width="50" height="40" as="geometry" />
        </mxCell>
        <mxCell id="q9S4o-dT0F2zTEYb0Q2K-7" value="8" style="rounded=0;whiteSpace=wrap;html=1;fillColor=#bac8d3;strokeColor=#23445d;" vertex="1" parent="1">
          <mxGeometry x="352.5" y="60" width="50" height="40" as="geometry" />
        </mxCell>
        <mxCell id="q9S4o-dT0F2zTEYb0Q2K-8" value="5" style="rounded=0;whiteSpace=wrap;html=1;glass=0;shadow=0;fillColor=#f5f5f5;fontColor=#333333;strokeColor=#666666;" vertex="1" parent="1">
          <mxGeometry x="152.5" y="-60" width="50" height="40" as="geometry" />
        </mxCell>
        <mxCell id="q9S4o-dT0F2zTEYb0Q2K-9" value="2" style="rounded=0;whiteSpace=wrap;html=1;fillColor=none;" vertex="1" parent="1">
          <mxGeometry x="202.5" y="-60" width="50" height="40" as="geometry" />
        </mxCell>
        <mxCell id="q9S4o-dT0F2zTEYb0Q2K-10" value="7" style="rounded=0;whiteSpace=wrap;html=1;fillColor=none;" vertex="1" parent="1">
          <mxGeometry x="252.5" y="-60" width="50" height="40" as="geometry" />
        </mxCell>
        <mxCell id="q9S4o-dT0F2zTEYb0Q2K-11" value="10" style="rounded=0;whiteSpace=wrap;html=1;fillColor=#f5f5f5;gradientColor=#b3b3b3;strokeColor=#666666;" vertex="1" parent="1">
          <mxGeometry x="302.5" y="-60" width="50" height="40" as="geometry" />
        </mxCell>
        <mxCell id="q9S4o-dT0F2zTEYb0Q2K-12" value="6" style="rounded=0;whiteSpace=wrap;html=1;fillColor=#bac8d3;strokeColor=#23445d;" vertex="1" parent="1">
          <mxGeometry x="352.5" y="-60" width="50" height="40" as="geometry" />
        </mxCell>
        <mxCell id="q9S4o-dT0F2zTEYb0Q2K-13" value="Router 1" style="text;html=1;align=center;verticalAlign=middle;resizable=0;points=[];autosize=1;strokeColor=none;fillColor=none;" vertex="1" parent="1">
          <mxGeometry x="77.5" y="-52" width="70" height="30" as="geometry" />
        </mxCell>
        <mxCell id="q9S4o-dT0F2zTEYb0Q2K-14" value="Router 2" style="text;html=1;align=center;verticalAlign=middle;resizable=0;points=[];autosize=1;strokeColor=none;fillColor=none;" vertex="1" parent="1">
          <mxGeometry x="77.5" y="65" width="70" height="30" as="geometry" />
        </mxCell>
        <mxCell id="q9S4o-dT0F2zTEYb0Q2K-15" value="14" style="text;html=1;align=center;verticalAlign=middle;resizable=0;points=[];autosize=1;strokeColor=none;fillColor=none;" vertex="1" parent="1">
          <mxGeometry x="182.5" y="-22" width="40" height="30" as="geometry" />
        </mxCell>
        <mxCell id="q9S4o-dT0F2zTEYb0Q2K-16" value="23" style="text;html=1;align=center;verticalAlign=middle;resizable=0;points=[];autosize=1;strokeColor=none;fillColor=none;" vertex="1" parent="1">
          <mxGeometry x="232.5" y="-22" width="40" height="30" as="geometry" />
        </mxCell>
        <mxCell id="q9S4o-dT0F2zTEYb0Q2K-17" value="32" style="text;html=1;align=center;verticalAlign=middle;resizable=0;points=[];autosize=1;strokeColor=none;fillColor=none;" vertex="1" parent="1">
          <mxGeometry x="282.5" y="-22" width="40" height="30" as="geometry" />
        </mxCell>
        <mxCell id="q9S4o-dT0F2zTEYb0Q2K-18" value="40" style="text;html=1;align=center;verticalAlign=middle;resizable=0;points=[];autosize=1;strokeColor=none;fillColor=none;" vertex="1" parent="1">
          <mxGeometry x="332.5" y="-22" width="40" height="30" as="geometry" />
        </mxCell>
        <mxCell id="q9S4o-dT0F2zTEYb0Q2K-19" value="44" style="text;html=1;align=center;verticalAlign=middle;resizable=0;points=[];autosize=1;strokeColor=none;fillColor=none;" vertex="1" parent="1">
          <mxGeometry x="382.5" y="-22" width="40" height="30" as="geometry" />
        </mxCell>
        <mxCell id="q9S4o-dT0F2zTEYb0Q2K-20" value="13" style="text;html=1;align=center;verticalAlign=middle;resizable=0;points=[];autosize=1;strokeColor=none;fillColor=none;" vertex="1" parent="1">
          <mxGeometry x="182.5" y="98" width="40" height="30" as="geometry" />
        </mxCell>
        <mxCell id="q9S4o-dT0F2zTEYb0Q2K-21" value="24" style="text;html=1;align=center;verticalAlign=middle;resizable=0;points=[];autosize=1;strokeColor=none;fillColor=none;" vertex="1" parent="1">
          <mxGeometry x="232.5" y="98" width="40" height="30" as="geometry" />
        </mxCell>
        <mxCell id="q9S4o-dT0F2zTEYb0Q2K-22" value="32" style="text;html=1;align=center;verticalAlign=middle;resizable=0;points=[];autosize=1;strokeColor=none;fillColor=none;" vertex="1" parent="1">
          <mxGeometry x="282.5" y="100" width="40" height="30" as="geometry" />
        </mxCell>
        <mxCell id="q9S4o-dT0F2zTEYb0Q2K-23" value="38" style="text;html=1;align=center;verticalAlign=middle;resizable=0;points=[];autosize=1;strokeColor=none;fillColor=none;" vertex="1" parent="1">
          <mxGeometry x="332.5" y="98" width="40" height="30" as="geometry" />
        </mxCell>
        <mxCell id="q9S4o-dT0F2zTEYb0Q2K-24" value="44" style="text;html=1;align=center;verticalAlign=middle;resizable=0;points=[];autosize=1;strokeColor=none;fillColor=none;" vertex="1" parent="1">
          <mxGeometry x="372.5" y="98" width="40" height="30" as="geometry" />
        </mxCell>
        <mxCell id="q9S4o-dT0F2zTEYb0Q2K-25" value="" style="endArrow=classic;html=1;rounded=0;" edge="1" parent="1">
          <mxGeometry width="50" height="50" relative="1" as="geometry">
            <mxPoint x="120" y="555" as="sourcePoint" />
            <mxPoint x="120" y="355" as="targetPoint" />
          </mxGeometry>
        </mxCell>
        <mxCell id="q9S4o-dT0F2zTEYb0Q2K-26" value="" style="endArrow=classic;html=1;rounded=0;" edge="1" parent="1">
          <mxGeometry width="50" height="50" relative="1" as="geometry">
            <mxPoint x="120" y="555" as="sourcePoint" />
            <mxPoint x="450" y="555" as="targetPoint" />
          </mxGeometry>
        </mxCell>
        <mxCell id="q9S4o-dT0F2zTEYb0Q2K-27" value="9" style="rounded=0;whiteSpace=wrap;html=1;fillColor=#f5f5f5;gradientColor=#b3b3b3;strokeColor=#666666;" vertex="1" parent="1">
          <mxGeometry x="120" y="515" width="50" height="40" as="geometry" />
        </mxCell>
        <mxCell id="q9S4o-dT0F2zTEYb0Q2K-28" value="3" style="rounded=0;whiteSpace=wrap;html=1;fillColor=#bac8d3;strokeColor=#23445d;" vertex="1" parent="1">
          <mxGeometry x="170" y="515" width="50" height="40" as="geometry" />
        </mxCell>
        <mxCell id="q9S4o-dT0F2zTEYb0Q2K-30" value="8" style="rounded=0;whiteSpace=wrap;html=1;" vertex="1" parent="1">
          <mxGeometry x="270" y="515" width="50" height="40" as="geometry" />
        </mxCell>
        <mxCell id="q9S4o-dT0F2zTEYb0Q2K-31" value="4" style="rounded=0;whiteSpace=wrap;html=1;fillColor=#f5f5f5;gradientColor=#b3b3b3;strokeColor=#666666;" vertex="1" parent="1">
          <mxGeometry x="320" y="515" width="50" height="40" as="geometry" />
        </mxCell>
        <mxCell id="q9S4o-dT0F2zTEYb0Q2K-32" value="5" style="rounded=0;whiteSpace=wrap;html=1;fillColor=#bac8d3;strokeColor=#23445d;" vertex="1" parent="1">
          <mxGeometry x="120" y="395" width="50" height="40" as="geometry" />
        </mxCell>
        <mxCell id="q9S4o-dT0F2zTEYb0Q2K-33" value="7" style="rounded=0;whiteSpace=wrap;html=1;fillColor=#f5f5f5;fontColor=#333333;strokeColor=#666666;" vertex="1" parent="1">
          <mxGeometry x="170" y="395" width="50" height="40" as="geometry" />
        </mxCell>
        <mxCell id="q9S4o-dT0F2zTEYb0Q2K-34" value="2" style="rounded=0;whiteSpace=wrap;html=1;fillColor=none;" vertex="1" parent="1">
          <mxGeometry x="220" y="395" width="50" height="40" as="geometry" />
        </mxCell>
        <mxCell id="q9S4o-dT0F2zTEYb0Q2K-35" value="1" style="rounded=0;whiteSpace=wrap;html=1;fillColor=#f5f5f5;gradientColor=#b3b3b3;strokeColor=#666666;" vertex="1" parent="1">
          <mxGeometry x="270" y="395" width="50" height="40" as="geometry" />
        </mxCell>
        <mxCell id="q9S4o-dT0F2zTEYb0Q2K-36" value="6" style="rounded=0;whiteSpace=wrap;html=1;" vertex="1" parent="1">
          <mxGeometry x="352.5" y="395" width="50" height="40" as="geometry" />
        </mxCell>
        <mxCell id="q9S4o-dT0F2zTEYb0Q2K-37" value="Router 1" style="text;html=1;align=center;verticalAlign=middle;resizable=0;points=[];autosize=1;strokeColor=none;fillColor=none;" vertex="1" parent="1">
          <mxGeometry x="45" y="403" width="70" height="30" as="geometry" />
        </mxCell>
        <mxCell id="q9S4o-dT0F2zTEYb0Q2K-38" value="Router 2" style="text;html=1;align=center;verticalAlign=middle;resizable=0;points=[];autosize=1;strokeColor=none;fillColor=none;" vertex="1" parent="1">
          <mxGeometry x="45" y="520" width="70" height="30" as="geometry" />
        </mxCell>
        <mxCell id="q9S4o-dT0F2zTEYb0Q2K-39" value="14" style="text;html=1;align=center;verticalAlign=middle;resizable=0;points=[];autosize=1;strokeColor=none;fillColor=none;" vertex="1" parent="1">
          <mxGeometry x="150" y="433" width="40" height="30" as="geometry" />
        </mxCell>
        <mxCell id="q9S4o-dT0F2zTEYb0Q2K-40" value="23" style="text;html=1;align=center;verticalAlign=middle;resizable=0;points=[];autosize=1;strokeColor=none;fillColor=none;" vertex="1" parent="1">
          <mxGeometry x="200" y="433" width="40" height="30" as="geometry" />
        </mxCell>
        <mxCell id="q9S4o-dT0F2zTEYb0Q2K-41" value="32" style="text;html=1;align=center;verticalAlign=middle;resizable=0;points=[];autosize=1;strokeColor=none;fillColor=none;" vertex="1" parent="1">
          <mxGeometry x="250" y="433" width="40" height="30" as="geometry" />
        </mxCell>
        <mxCell id="q9S4o-dT0F2zTEYb0Q2K-42" value="40" style="text;html=1;align=center;verticalAlign=middle;resizable=0;points=[];autosize=1;strokeColor=none;fillColor=none;" vertex="1" parent="1">
          <mxGeometry x="300" y="433" width="40" height="30" as="geometry" />
        </mxCell>
        <mxCell id="q9S4o-dT0F2zTEYb0Q2K-43" value="44" style="text;html=1;align=center;verticalAlign=middle;resizable=0;points=[];autosize=1;strokeColor=none;fillColor=none;" vertex="1" parent="1">
          <mxGeometry x="340" y="433" width="40" height="30" as="geometry" />
        </mxCell>
        <mxCell id="q9S4o-dT0F2zTEYb0Q2K-44" value="13" style="text;html=1;align=center;verticalAlign=middle;resizable=0;points=[];autosize=1;strokeColor=none;fillColor=none;" vertex="1" parent="1">
          <mxGeometry x="150" y="553" width="40" height="30" as="geometry" />
        </mxCell>
        <mxCell id="q9S4o-dT0F2zTEYb0Q2K-45" value="24" style="text;html=1;align=center;verticalAlign=middle;resizable=0;points=[];autosize=1;strokeColor=none;fillColor=none;" vertex="1" parent="1">
          <mxGeometry x="200" y="553" width="40" height="30" as="geometry" />
        </mxCell>
        <mxCell id="q9S4o-dT0F2zTEYb0Q2K-46" value="32" style="text;html=1;align=center;verticalAlign=middle;resizable=0;points=[];autosize=1;strokeColor=none;fillColor=none;" vertex="1" parent="1">
          <mxGeometry x="250" y="555" width="40" height="30" as="geometry" />
        </mxCell>
        <mxCell id="q9S4o-dT0F2zTEYb0Q2K-47" value="38" style="text;html=1;align=center;verticalAlign=middle;resizable=0;points=[];autosize=1;strokeColor=none;fillColor=none;" vertex="1" parent="1">
          <mxGeometry x="300" y="553" width="40" height="30" as="geometry" />
        </mxCell>
        <mxCell id="q9S4o-dT0F2zTEYb0Q2K-48" value="44" style="text;html=1;align=center;verticalAlign=middle;resizable=0;points=[];autosize=1;strokeColor=none;fillColor=none;" vertex="1" parent="1">
          <mxGeometry x="340" y="553" width="40" height="30" as="geometry" />
        </mxCell>
        <mxCell id="q9S4o-dT0F2zTEYb0Q2K-49" value="" style="endArrow=classic;html=1;rounded=0;" edge="1" parent="1">
          <mxGeometry width="50" height="50" relative="1" as="geometry">
            <mxPoint x="133.75" y="1030" as="sourcePoint" />
            <mxPoint x="133.75" y="830" as="targetPoint" />
          </mxGeometry>
        </mxCell>
        <mxCell id="q9S4o-dT0F2zTEYb0Q2K-50" value="" style="endArrow=classic;html=1;rounded=0;" edge="1" parent="1">
          <mxGeometry width="50" height="50" relative="1" as="geometry">
            <mxPoint x="133.75" y="1030" as="sourcePoint" />
            <mxPoint x="463.75" y="1030" as="targetPoint" />
          </mxGeometry>
        </mxCell>
        <mxCell id="q9S4o-dT0F2zTEYb0Q2K-51" value="2" style="rounded=0;whiteSpace=wrap;html=1;" vertex="1" parent="1">
          <mxGeometry x="133.75" y="990" width="50" height="40" as="geometry" />
        </mxCell>
        <mxCell id="q9S4o-dT0F2zTEYb0Q2K-52" value="3" style="rounded=0;whiteSpace=wrap;html=1;fillColor=#f5f5f5;fontColor=#333333;strokeColor=#666666;" vertex="1" parent="1">
          <mxGeometry x="183.75" y="990" width="50" height="40" as="geometry" />
        </mxCell>
        <mxCell id="q9S4o-dT0F2zTEYb0Q2K-53" value="8" style="rounded=0;whiteSpace=wrap;html=1;fillColor=none;" vertex="1" parent="1">
          <mxGeometry x="233.75" y="990" width="50" height="40" as="geometry" />
        </mxCell>
        <mxCell id="q9S4o-dT0F2zTEYb0Q2K-54" value="5" style="rounded=0;whiteSpace=wrap;html=1;fillColor=#f5f5f5;fontColor=#333333;strokeColor=#666666;" vertex="1" parent="1">
          <mxGeometry x="283.75" y="990" width="50" height="40" as="geometry" />
        </mxCell>
        <mxCell id="q9S4o-dT0F2zTEYb0Q2K-55" value="9" style="rounded=0;whiteSpace=wrap;html=1;fillColor=#f5f5f5;gradientColor=#b3b3b3;strokeColor=#666666;" vertex="1" parent="1">
          <mxGeometry x="333.75" y="990" width="50" height="40" as="geometry" />
        </mxCell>
        <mxCell id="q9S4o-dT0F2zTEYb0Q2K-56" value="4" style="rounded=0;whiteSpace=wrap;html=1;" vertex="1" parent="1">
          <mxGeometry x="133.75" y="870" width="50" height="40" as="geometry" />
        </mxCell>
        <mxCell id="q9S4o-dT0F2zTEYb0Q2K-57" value="10" style="rounded=0;whiteSpace=wrap;html=1;fillColor=#bac8d3;strokeColor=#23445d;" vertex="1" parent="1">
          <mxGeometry x="183.75" y="870" width="50" height="40" as="geometry" />
        </mxCell>
        <mxCell id="q9S4o-dT0F2zTEYb0Q2K-58" value="6" style="rounded=0;whiteSpace=wrap;html=1;fillColor=#f5f5f5;fontColor=#333333;strokeColor=#666666;" vertex="1" parent="1">
          <mxGeometry x="233.75" y="870" width="50" height="40" as="geometry" />
        </mxCell>
        <mxCell id="q9S4o-dT0F2zTEYb0Q2K-59" value="1" style="rounded=0;whiteSpace=wrap;html=1;fillColor=#f5f5f5;gradientColor=#b3b3b3;strokeColor=#666666;" vertex="1" parent="1">
          <mxGeometry x="283.75" y="870" width="50" height="40" as="geometry" />
        </mxCell>
        <mxCell id="q9S4o-dT0F2zTEYb0Q2K-61" value="Router 1" style="text;html=1;align=center;verticalAlign=middle;resizable=0;points=[];autosize=1;strokeColor=none;fillColor=none;" vertex="1" parent="1">
          <mxGeometry x="58.75" y="878" width="70" height="30" as="geometry" />
        </mxCell>
        <mxCell id="q9S4o-dT0F2zTEYb0Q2K-62" value="Router 2" style="text;html=1;align=center;verticalAlign=middle;resizable=0;points=[];autosize=1;strokeColor=none;fillColor=none;" vertex="1" parent="1">
          <mxGeometry x="58.75" y="995" width="70" height="30" as="geometry" />
        </mxCell>
        <mxCell id="q9S4o-dT0F2zTEYb0Q2K-63" value="8" style="text;html=1;align=center;verticalAlign=middle;resizable=0;points=[];autosize=1;strokeColor=none;fillColor=none;" vertex="1" parent="1">
          <mxGeometry x="168.75" y="908" width="30" height="30" as="geometry" />
        </mxCell>
        <mxCell id="q9S4o-dT0F2zTEYb0Q2K-64" value="15" style="text;html=1;align=center;verticalAlign=middle;resizable=0;points=[];autosize=1;strokeColor=none;fillColor=none;" vertex="1" parent="1">
          <mxGeometry x="213.75" y="908" width="40" height="30" as="geometry" />
        </mxCell>
        <mxCell id="q9S4o-dT0F2zTEYb0Q2K-65" value="20" style="text;html=1;align=center;verticalAlign=middle;resizable=0;points=[];autosize=1;strokeColor=none;fillColor=none;" vertex="1" parent="1">
          <mxGeometry x="263.75" y="908" width="40" height="30" as="geometry" />
        </mxCell>
        <mxCell id="q9S4o-dT0F2zTEYb0Q2K-66" value="22" style="text;html=1;align=center;verticalAlign=middle;resizable=0;points=[];autosize=1;strokeColor=none;fillColor=none;" vertex="1" parent="1">
          <mxGeometry x="313.75" y="908" width="40" height="30" as="geometry" />
        </mxCell>
        <mxCell id="q9S4o-dT0F2zTEYb0Q2K-68" value="8" style="text;html=1;align=center;verticalAlign=middle;resizable=0;points=[];autosize=1;strokeColor=none;fillColor=none;" vertex="1" parent="1">
          <mxGeometry x="168.75" y="1028" width="30" height="30" as="geometry" />
        </mxCell>
        <mxCell id="q9S4o-dT0F2zTEYb0Q2K-69" value="15" style="text;html=1;align=center;verticalAlign=middle;resizable=0;points=[];autosize=1;strokeColor=none;fillColor=none;" vertex="1" parent="1">
          <mxGeometry x="213.75" y="1028" width="40" height="30" as="geometry" />
        </mxCell>
        <mxCell id="q9S4o-dT0F2zTEYb0Q2K-70" value="18" style="text;html=1;align=center;verticalAlign=middle;resizable=0;points=[];autosize=1;strokeColor=none;fillColor=none;" vertex="1" parent="1">
          <mxGeometry x="263.75" y="1030" width="40" height="30" as="geometry" />
        </mxCell>
        <mxCell id="q9S4o-dT0F2zTEYb0Q2K-71" value="20" style="text;html=1;align=center;verticalAlign=middle;resizable=0;points=[];autosize=1;strokeColor=none;fillColor=none;" vertex="1" parent="1">
          <mxGeometry x="313.75" y="1028" width="40" height="30" as="geometry" />
        </mxCell>
        <mxCell id="q9S4o-dT0F2zTEYb0Q2K-72" value="21" style="text;html=1;align=center;verticalAlign=middle;resizable=0;points=[];autosize=1;strokeColor=none;fillColor=none;" vertex="1" parent="1">
          <mxGeometry x="353.75" y="1028" width="40" height="30" as="geometry" />
        </mxCell>
        <mxCell id="q9S4o-dT0F2zTEYb0Q2K-73" value="48" style="text;html=1;align=center;verticalAlign=middle;resizable=0;points=[];autosize=1;strokeColor=none;fillColor=none;" vertex="1" parent="1">
          <mxGeometry x="380" y="435" width="40" height="30" as="geometry" />
        </mxCell>
        <mxCell id="q9S4o-dT0F2zTEYb0Q2K-74" value="8" style="rounded=0;whiteSpace=wrap;html=1;fillColor=#f5f5f5;fontColor=#333333;strokeColor=#666666;" vertex="1" parent="1">
          <mxGeometry x="220" y="515" width="50" height="40" as="geometry" />
        </mxCell>
        <mxCell id="q9S4o-dT0F2zTEYb0Q2K-75" value="7" style="rounded=0;whiteSpace=wrap;html=1;fillColor=#f5f5f5;gradientColor=#b3b3b3;strokeColor=#666666;" vertex="1" parent="1">
          <mxGeometry x="383.75" y="990" width="50" height="40" as="geometry" />
        </mxCell>
        <mxCell id="q9S4o-dT0F2zTEYb0Q2K-76" value="22" style="text;html=1;align=center;verticalAlign=middle;resizable=0;points=[];autosize=1;strokeColor=none;fillColor=none;" vertex="1" parent="1">
          <mxGeometry x="406.25" y="1028" width="40" height="30" as="geometry" />
        </mxCell>
        <mxCell id="q9S4o-dT0F2zTEYb0Q2K-78" value="" style="rounded=0;whiteSpace=wrap;html=1;fillColor=#bac8d3;strokeColor=#23445d;" vertex="1" parent="1">
          <mxGeometry x="185" y="618" width="50" height="40" as="geometry" />
        </mxCell>
        <mxCell id="q9S4o-dT0F2zTEYb0Q2K-79" value="" style="rounded=0;whiteSpace=wrap;html=1;fillColor=#f5f5f5;fontColor=#333333;strokeColor=#666666;" vertex="1" parent="1">
          <mxGeometry x="352.5" y="618" width="50" height="40" as="geometry" />
        </mxCell>
        <mxCell id="q9S4o-dT0F2zTEYb0Q2K-80" value="" style="rounded=0;whiteSpace=wrap;html=1;fillColor=#f5f5f5;gradientColor=#b3b3b3;strokeColor=#666666;" vertex="1" parent="1">
          <mxGeometry x="510" y="618" width="50" height="40" as="geometry" />
        </mxCell>
        <mxCell id="q9S4o-dT0F2zTEYb0Q2K-81" value="" style="rounded=0;whiteSpace=wrap;html=1;" vertex="1" parent="1">
          <mxGeometry x="670" y="618" width="50" height="40" as="geometry" />
        </mxCell>
        <mxCell id="q9S4o-dT0F2zTEYb0Q2K-82" value="Category 1" style="text;html=1;align=center;verticalAlign=middle;resizable=0;points=[];autosize=1;strokeColor=none;fillColor=none;" vertex="1" parent="1">
          <mxGeometry x="110" y="628" width="80" height="30" as="geometry" />
        </mxCell>
        <mxCell id="q9S4o-dT0F2zTEYb0Q2K-83" value="Category&amp;nbsp; 2" style="text;html=1;align=center;verticalAlign=middle;resizable=0;points=[];autosize=1;strokeColor=none;fillColor=none;" vertex="1" parent="1">
          <mxGeometry x="260" y="628" width="90" height="30" as="geometry" />
        </mxCell>
        <mxCell id="q9S4o-dT0F2zTEYb0Q2K-84" value="Category&amp;nbsp; 3" style="text;html=1;align=center;verticalAlign=middle;resizable=0;points=[];autosize=1;strokeColor=none;fillColor=none;" vertex="1" parent="1">
          <mxGeometry x="430" y="628" width="90" height="30" as="geometry" />
        </mxCell>
        <mxCell id="q9S4o-dT0F2zTEYb0Q2K-85" value="Category&amp;nbsp; 4" style="text;html=1;align=center;verticalAlign=middle;resizable=0;points=[];autosize=1;strokeColor=none;fillColor=none;" vertex="1" parent="1">
          <mxGeometry x="580" y="628" width="90" height="30" as="geometry" />
        </mxCell>
        <mxCell id="q9S4o-dT0F2zTEYb0Q2K-95" value="" style="rounded=0;whiteSpace=wrap;html=1;fillColor=#bac8d3;strokeColor=#23445d;" vertex="1" parent="1">
          <mxGeometry x="161.25" y="1110" width="50" height="40" as="geometry" />
        </mxCell>
        <mxCell id="q9S4o-dT0F2zTEYb0Q2K-96" value="" style="rounded=0;whiteSpace=wrap;html=1;fillColor=#f5f5f5;fontColor=#333333;strokeColor=#666666;" vertex="1" parent="1">
          <mxGeometry x="328.75" y="1110" width="50" height="40" as="geometry" />
        </mxCell>
        <mxCell id="q9S4o-dT0F2zTEYb0Q2K-97" value="" style="rounded=0;whiteSpace=wrap;html=1;fillColor=#f5f5f5;gradientColor=#b3b3b3;strokeColor=#666666;" vertex="1" parent="1">
          <mxGeometry x="486.25" y="1110" width="50" height="40" as="geometry" />
        </mxCell>
        <mxCell id="q9S4o-dT0F2zTEYb0Q2K-98" value="" style="rounded=0;whiteSpace=wrap;html=1;" vertex="1" parent="1">
          <mxGeometry x="646.25" y="1110" width="50" height="40" as="geometry" />
        </mxCell>
        <mxCell id="q9S4o-dT0F2zTEYb0Q2K-99" value="Category 1" style="text;html=1;align=center;verticalAlign=middle;resizable=0;points=[];autosize=1;strokeColor=none;fillColor=none;" vertex="1" parent="1">
          <mxGeometry x="86.25" y="1120" width="80" height="30" as="geometry" />
        </mxCell>
        <mxCell id="q9S4o-dT0F2zTEYb0Q2K-100" value="Category&amp;nbsp; 2" style="text;html=1;align=center;verticalAlign=middle;resizable=0;points=[];autosize=1;strokeColor=none;fillColor=none;" vertex="1" parent="1">
          <mxGeometry x="236.25" y="1120" width="90" height="30" as="geometry" />
        </mxCell>
        <mxCell id="q9S4o-dT0F2zTEYb0Q2K-101" value="Category&amp;nbsp; 3" style="text;html=1;align=center;verticalAlign=middle;resizable=0;points=[];autosize=1;strokeColor=none;fillColor=none;" vertex="1" parent="1">
          <mxGeometry x="406.25" y="1120" width="90" height="30" as="geometry" />
        </mxCell>
        <mxCell id="q9S4o-dT0F2zTEYb0Q2K-102" value="Category&amp;nbsp; 4" style="text;html=1;align=center;verticalAlign=middle;resizable=0;points=[];autosize=1;strokeColor=none;fillColor=none;" vertex="1" parent="1">
          <mxGeometry x="556.25" y="1120" width="90" height="30" as="geometry" />
        </mxCell>
        <mxCell id="q9S4o-dT0F2zTEYb0Q2K-135" value="" style="rounded=0;whiteSpace=wrap;html=1;fillColor=#bac8d3;strokeColor=#23445d;" vertex="1" parent="1">
          <mxGeometry x="170" y="150" width="50" height="40" as="geometry" />
        </mxCell>
        <mxCell id="q9S4o-dT0F2zTEYb0Q2K-136" value="" style="rounded=0;whiteSpace=wrap;html=1;fillColor=#f5f5f5;fontColor=#333333;strokeColor=#666666;" vertex="1" parent="1">
          <mxGeometry x="337.5" y="150" width="50" height="40" as="geometry" />
        </mxCell>
        <mxCell id="q9S4o-dT0F2zTEYb0Q2K-137" value="" style="rounded=0;whiteSpace=wrap;html=1;fillColor=#f5f5f5;gradientColor=#b3b3b3;strokeColor=#666666;" vertex="1" parent="1">
          <mxGeometry x="495" y="150" width="50" height="40" as="geometry" />
        </mxCell>
        <mxCell id="q9S4o-dT0F2zTEYb0Q2K-138" value="" style="rounded=0;whiteSpace=wrap;html=1;" vertex="1" parent="1">
          <mxGeometry x="655" y="150" width="50" height="40" as="geometry" />
        </mxCell>
        <mxCell id="q9S4o-dT0F2zTEYb0Q2K-139" value="Category 1" style="text;html=1;align=center;verticalAlign=middle;resizable=0;points=[];autosize=1;strokeColor=none;fillColor=none;" vertex="1" parent="1">
          <mxGeometry x="95" y="160" width="80" height="30" as="geometry" />
        </mxCell>
        <mxCell id="q9S4o-dT0F2zTEYb0Q2K-140" value="Category&amp;nbsp; 2" style="text;html=1;align=center;verticalAlign=middle;resizable=0;points=[];autosize=1;strokeColor=none;fillColor=none;" vertex="1" parent="1">
          <mxGeometry x="245" y="160" width="90" height="30" as="geometry" />
        </mxCell>
        <mxCell id="q9S4o-dT0F2zTEYb0Q2K-141" value="Category&amp;nbsp; 3" style="text;html=1;align=center;verticalAlign=middle;resizable=0;points=[];autosize=1;strokeColor=none;fillColor=none;" vertex="1" parent="1">
          <mxGeometry x="415" y="160" width="90" height="30" as="geometry" />
        </mxCell>
        <mxCell id="q9S4o-dT0F2zTEYb0Q2K-142" value="Category&amp;nbsp; 4" style="text;html=1;align=center;verticalAlign=middle;resizable=0;points=[];autosize=1;strokeColor=none;fillColor=none;" vertex="1" parent="1">
          <mxGeometry x="565" y="160" width="90" height="30" as="geometry" />
        </mxCell>
        <mxCell id="q9S4o-dT0F2zTEYb0Q2K-145" value="Text" style="text;html=1;align=center;verticalAlign=middle;resizable=0;points=[];autosize=1;strokeColor=none;fillColor=none;" vertex="1" parent="1">
          <mxGeometry x="465" y="-62" width="50" height="30" as="geometry" />
        </mxCell>
        <mxCell id="q9S4o-dT0F2zTEYb0Q2K-146" value="" style="shape=image;verticalLabelPosition=bottom;labelBackgroundColor=default;verticalAlign=top;aspect=fixed;imageAspect=0;image=data:image/png,iVBORw0KGgoAAAANSUhEUgAAAucAAACyCAYAAADh22GlAAAAAXNSR0IArs4c6QAAAARnQU1BAACxjwv8YQUAAAAJcEhZcwAADsMAAA7DAcdvqGQAABdESURBVHhe7d29ThxZmMbx7r0My7Is4BocWJiAAIhWu5IDcEQwQoJJLZyQjEQCmnRAsiZwBARIu9oICAjcyIGvARCyLO5ihu3ncF58OFR/Qbt9ut7/Tyqqu6q6vrvrqVOniuZNWwMAAADAL/cfsQ0AAADgFyOcAwAAAIUgnAMAAACFIJwDAAAAhSCcAwAAAIUgnAMAAACFIJwDAAAAhSCcAwAAAIUgnAMAAACFIJwDAAAAhSCcAwAAAIUgnHfQbDbvNdvb27HPrYODg9D98vIydvn5pqamGmtra/Fdo3F2dnY3f+qe9x8GLbemY6rWxa+SLz8AAMC4a960xddoU/D88OFDo9VqNaanp2PX21A6Pz/fODo6Cu8VzpeWlhoXFxeNiYmJ0G3UFMbn5uYaOzs7sctwKfy+efPmwbooxc9efgAAgFGj5DyhMFoVzEUh/Pj4OIRyAAAA4GcgnCf29vZC6XhVKbFKxxXanz9/Hrs8pFJ3q2ahRiW7qbQahjWpXv2t2oqq0qifThh2d3fDa3Wrqtaibun4NI1U2k+NnXxYqbmobePVMHm1lvTz+TJrWHWzakDW9FMdaGFhofIznZYfAABg3BHOEycnJ43Z2dn47iGF9k7VO6w6jGoJWSMKmKLwqJC7v79/118nAv32T+lEQf0nJycbq6ur4XVV1RqFVlX7sPFtbW2FaViQVX91s/6atqrqKJhrOXUyImpXVR2xkGzzoEbTU7eUQvSnT5/uhtFyabhuFOjPz8/vPqN50/Jq3vpdfgAAgHFDOE8oRD6WgrmCbkoBVFVh5Pr6OrRfvXoV2qL66xZ6e/UflJVup59fX18PQVasv7oZm/aXL19Cu5c///wzBOR0GvY6L11Ph9nY2AjrulNpt0rZ1V8nS2ZxcTGE+s3NzdgFAACgfgjnQ6LQa0HXqmOoyoWxEneF2TS4Wolvr/6Durq6CmG2isaZBnWrTqNpD0LhuaoEXKXZp6en8d2tQZbj8+fPYV7yzywvL9+d7AAAANQR4TyhQKhQ+xgK1Aq4aqw6hkJqSt0UmFXKbsOmN5j26j+ITqXSKZuGVad5ypWDx7CrBQAAALhFOE+oFLhbqNVNkfkNj6LPKFBbfXGF805UVUXDWBC3Ot6mV/9h0bLoZMSmpWojw9LPicFjfPv2Lb4CAACoJ8J54v3796HaRFUYVuBUNZWVlZXY5QcrAc6f5NIrpFo97O/fv4d2rlf/bnRja7cqIJq3/EQjL8l+9uxZfFVNJzNpvXCj6Xa7sbaXmZmZyjrpqirTqaoOAABAHRDOE6rjbE80SauTKCSqlFlNegOlsfriehSjUTWXNBzbowTT4H94eBjauhGzV/9B2Xymj1bUuK2qjIX3NABruQehkxmF6HQa9rpqPfVLpfha12l9ds2z5lc3kwIAANQV4TyjUKlHB6o6idXJVlBUaO9WXUWfsWduq1Eprz2KUMFSgVPVXhSAbRhVhVG41UlBr/6PoeoqKtm28WncmidNS8upUmgtm/VXP3X7+PFj+Lymq/f6XLdHOqbLremp21NpXatk38Zr/42106MsAQAA6oB/3w8AAAAUgpJzAAAAoBCEcwAAAKAQhHMAAACgEIRzAAAAoBCEcwAAAKAQhPMRs2eNV/2jo0Ho83qW+mPZc9V7/aOkX0HzlD47fdykj4Ds1PS7/bUeqv4rbUr7gcYJAADGH+F8TA36D4PGSfrPh8aRntGuJ5Sq0bPZRc+wt25qeF47AACoQjgHAAAACkE4T6hqgFX3sKaq6oj+W2Y6TFUVjHwYjbcTGzYdJv98Wv1E70X/QdSqPKh/Onz+mU4ODw87fkbv8+W3ajndxq31kY4zH0e39aflUWmz/ddRY9Ot+oxJp6vxaLp5lZBe29c+Z/3/+OOP0M6roVSN+zGqtltVlZd82XrJt0G/1WgAAMAvdoM7Wh1q9vf3w/t2SAzvt7a2wnuZn58PjakaZnJy8t4wGp+GabVaobHXouH0PqVuGoexz2taJp9m/n51dfXeOHI2znTa+nw6napxqFu6bLl83m15bZ2qf/r5TutP0zH5OCQfRq+rliWdF+tm6170Ph2Phle3dF3n0xJ1S+e5E1u+dN5NVb+qbaD36TrL17F9xuTrIt/nAABAue6nQucUYPIQlgafTiFHQcnCk4XeNNwZdUvHkYco6TQNjT+dNw1j4dBCXv6ZqnkwNp/5Z9IgWjUv6XRzVcObfNlT6fqTdB5E/dL+YuOyZdTrPABrPGpM1bzn2yufF8nDb7flzNm2yedNtIzp/ImN24av2kfycabz12l6Gk++XAAAoDxUa8nMzMzEV7dev34d2qp+oJv42uvs7mY+qzLQDkThvXz79q3RDlyNiYmJ2OWHtNvy8nKoutEOY7HLrS9fvoTP5zcMzs7ONk5OTuK7+zRefUY3iabVParmIZdPRzdj2nTUT+PVPIlVjXj79m1o575//x7a+ThF86LuvdZflePj47C+UjaOr1+/3s3Xq1evQtukN5baMLY9zeLiYmhrPCZfb7a8No5O22hQOzs74eZRseo2VTf6tkN1fHXLtvfnz59jlx9sOWy5jPZrrUcAAFA2wnmfrq+vQzutL726uhrCpoKSubq6iq+6UyDV5/LQqc+rn03DGtUv7xZiFfI0P1ZXW01en/oxFHA/fvwYXu/t7YWg2Cn068Skl17rL2d125eWlu4+Z41omnZSkHv58mV89TQWhrX8ovWxsrISXj9FWt9cy6cTtfxkbVC2DdL1ZOOXbvcKAACAX49w3qdnz56F0k2VPiokK1Sq5POxFMJUQq1x5SFaQVDjr2q60fzYcAq+CvTdbkTtJL3h8N27d2EeFeo0vyrBf6ynrL/97FGE1qyvrzeeP38ehxpcv2FVYVzLr+E1/3kJ/GPoKodOdmxZBi2J73byka6jtOl0YgUAAMpAOM/kVQWsCoNCjZVK5gFHYc2o+oCF2V40nq2trRCibfhOn1eQS0Nzt9JmseDbqzQ7f4pHHsAVGDUtTV/z1alKi1hgzcdp+ll/ki6nhtX08+2i9aMSYQX+tIpL6vT0NL76UQ3GqugY+0xeJSan5dZ8aj1ofp5apUV0tSNfF1VXAfLqKN1OEDptA3sCDQAAKNwN7mh1qNFNeaK23tvNdfl70U126pbebNcOb/fet4NUGEY37tk4bBqSD6/3akzVdNXfbm6s6q/X+XRS1j+djm4aVLec3XCYzmMnGiYdp+izGnfVfGr4fNx6reGNzWv+uW7zbvOcDmPd0nWi9+m0NHz6PmXzauu9H7bt03k3+TzbsOnwNkw+j+n6suUyNp8m3f8AAEDZHiYxxywEqW1NHqosCFmj99ZNIchYQLLGxmMBNQ2I6qduaXjKP5+H7HQ+xMabNvlnUjZNa1tTxcadzl83+TpMP5fOt/Wzbrb+0nmybvnypeHUpNO1kJ2Gc8mXN1+mbuHc5rPbes1ZMNZ0q2h66fxo+DR8a170Ol22fNltvlLp8Go6TR8AAJSlqT/tgzfadNm/HXRCPWb8oCoSeopIOzg+qIZRMlVBURWQo6Oj2OVpVDVEN4PaE1YAAACGjTrn6GlzczPcYFpqMLf65+mNtTqh0JNrNjY2Ypen070BWhcAAAA/C+EcHdlNhCopfsqTaX42nTS0Wq0QnjW/alTSr27DuHHTHv+oE5T8+eEAAADDRLUWAAAAoBBdw/nff/8dX/Xvt99+i68AAAAADKJnOB8kbA86PAAAAIAfHlXn/D//67/jKwAAAADDMnA4t2BOQAcAAACGa+Bw/n//+z/32gAAAACGo+9w3qmknBJ0AAAAYDj6CudpVZZOrwEAAAA8TV/hPK3K0uk1AAAAgKfpu1pLpwBOMAcAAACGY+AbQqnKAgAAAPwcA4dzqrIAAAAAP8fA4VwI5gAAAMDw9fz3/YPi3/cDAAAAj9M1nD9Gs9mMrwAAAIDxNeSY3Jehh3MAAAAAj/OoOucAAAAAho9wDgAAABSCcA4AAAAUgnAOAAAAFGLk4XxhYaGxtrYW32EYtD71lBw1Z2dnsWv9aV+y5VYzNTUV+9RfvuxqvNG+bst+cHAQu9abljPd5tZof/Ciat+/vLyMfetJv235Mluzvb0dh6qv9BhnjZfvfNWy13l/75Znqn7/6rofjDycHx0dNXZ2duI7PIWFE31R5+fnY1cfdEA6Pj5ubG1thcccqX1xceHixM+WfX9//27ZxVNAk+Xl5fjKn9XV1bDtrdHvqgcKqdr3W63WveWfmJiIQ9TT+fn5veVVY7/5r1+/Du260u/d7u7uvX1elpaWan9SpuNZuuza72Vubi6066RXnlF/bXPJ94M8xNcB1VrG2PT0dNhBvRyYU+vr62HZ1Za3b9+G9snJSWjXmS374uJieG/L7okO2DoZm5ycjF1Qdyoh0zbXSal++zxTGNFJikJM3dfF1dVVaM/MzIS2WHi7vr4O7bpSMBcr0NS2VlDX96BugbRXntnc3AxtO0ER/RbI3t5eaNfJyMO5zgS9XI7C6Hmq2mLsaoGXkmSVrHz48CEcpOpYgoRqnz9/Dm07KfXMwoiH7/z79+9D20pIdYVQJyb6/ns8SXv58mVof/nyJbS90NUjSbf5q1evQruOV1AoOUctHB4ehraXgJrWu7XqPV5Ci52MeK4epxI12/52KbjubBnT5VbjoSpbSutB219XjTx851VlSSWqKi1/8+bNXbUmD99/u0KQ3ldgVxK80dWCTiy41wnhHGNPpSkqSdUPmZeAqkt/OmCpUTDX8nu4amCX8+1ypjfav227q7FLvJ6q99h9Jmr0nVdQTcNL3VlBxMrKSmjXnU5GdBJmodxCuoffO6viod93Oxm1qi6oN8I5xpp+uPVDrXDise69qA66Dlh1rIeY05URTydhvVgdVKn7tjfpPRYbGxuh7ak0UUFN7H6burMrI/p90/6u33l7AICHk7L0ZFyNfd9fvHgR2l50K4Co44ka4RxjS8FcX1g1dbyshfsUPnVAVglaXoqk+qh675FV96g7eyLL169fQ1u+f/8eX/lg92tZQPNA33dJn8hjwdRjFQ976IG3AgoL4GkhhP0W1PFpTYRzjCXPwVw/UgqiFsp0wNYBTOuizjdIadk6lSLZYyXrzk5KjJdtL+/evQttKy0Xe7Sa9as7W3a7SdIDXSmTtJTc1kP6BBcP9NuvAgp7fK4ndj+ZtXX8s+9/Lb8P7QPaSLUPpjftA2l8h6dof0mVRiqbuq/j9g925XKrqfuyV233djiLfX3R74mHbW5ardaDba/vghftUPJg+bVOPNA+7m17G/2+5dvdw3feft88LHc/ecbT97+pP+0FHBnVH9PZLnVGAQAAgPtGXq1FlyKeP38e3wEAAAAwIwvnqhtpdSXrXjcSAAAAeIyRV2sBAAAAUI2ntQAAAACFIJwDAAAAhSCcAwAAAIUgnAMAAACFIJwDAAAAhSCcAwAAAIUgnAMAAACFIJwDAAAAhSCcAwAAAIUgnAMAAACFIJwDAAAAhSCcAwAAAIUgnAMAAACFIJwDAAAAhSCcAwAAAIVo3rTF10PRbDbjKwAAAGB8DTkm92Xo4RwAAADA41CtBQAAACgE4RwAAAAoBOEcAAAAKAThHAAAACjEyMP51NRUY3t7O77DUy0sLIQn5KjRuvVmbW0tLPvZ2Vns4oP37S7a5lr+g4OD2MUP9vvbxiOP+z3bne3u7Tg38nB+fn7eWF9fj+/wFDrJmZ2dDY/5UbOyshIO2h7YD9XMzExjfn4+dvXB83ZPLS8vN1ZXV+M7H7zv99rmtt9vbW2Fg7c33vZ7tvstj9vd83GORynWyOXlZWNubi6cAHmiH+qNjY3G9PR07OKLx+2uH265uroKQXVxcTG894T9/jIcrI+OjmKX+mO/Z7t73u6ejnMjLznXAcXbpdhR8lrFwTtP210/0h8/fuQKnHMKaCpN9IL9/hbb3S9PxzluCK2Rw8NDVz9auOVtu+vg/OnTp/gOnqhwx+qg6pK3pxJEz/s9253fO2/HOcJ5TehqxOnpqcvLXZ552+5a3omJCbdVObxTVQargypeStK87/dsd9+/dx7zDeG8BnTZS2eUnurgwed21/Lu7OzEd/BMl/kV0nTgrjv2+x/Y7r54zTeE8zGnHdfjTaDeedzuOhhfXFzcXd5Ws7u721haWgqvgTpiv/eJ7e473xDOxxjB3Cev212Xdu3StjV6tNj+/v7d5W7Ul0pLte8bPe9Z34G6X/L3vt+z3X1ud+/5hnA+xnSjSH5mrcbDPynQF9eW9/j4uPHmzRs3y+55u3vneb8/OTlpTE5O3i2/HiNJwUT9sd198n6c4znnAAAAQCEoOQcAAAAKQTgHAAAACkE4BwAAAApBOAcAAAAKQTgHAAAACkE4BwAAAApBOAcAAAAKQTgHAAAACkE4BwAAAApBOAcAAAAKQTgHAAAACkE4BwAAAApBOAcAAAAKQTgHAAAACkE4BwAAAApBOAcAAAAKQTgHAAAACkE4BwAAAApBOAcAAAAKQTgHAAAACkE4BwAAAApBOAcAAAAKQTgHAAAACkE4BwAAAApBOB9zCwsLjWazGZqpqanY1Ye1tbW7ZVdzcHAQ+9SbtnO63NZsb2/HIerN63Y3Xr/z2s7pdlejdeGJ7ftnZ2exiw/pPq/GG4/b3ftxbuThXD+w2tHwdNpJZ2dnGzc3N6FZWVlxs27tC2rLrmZpaalxeXkZutfZ+fn5veVWMz8/33j9+nUcor48b3fx/J2X1dXVe9v+6Ogo9qk3hTIFk5mZmfBd90T7/PLy8t0239racnNS5nm7ez7OSREl595KP4ZlfX09NObt27eNk5OT+K7erq6uwg9WSl/c6+vr+M4PK02Znp4O7Trzvt09f+c903db4WRxcTF28UP7e7rc2ue98Lzdc56OczLScK4QrlKu3d3dcDZoodxL6ccoeLnM/f79+7Av2RdW+9LExISbL25qb28vlCx5wHZ/yFt1NvimK0Vefu/wg6fjnIw0nCuE7+/v312atFBOyflwHB4eutl5Fci0D21uboYTvY2NjcbOzk7s64eqc6jk1EvJCtv9Pk/febGCHWu8VGfyThnBtrmqdVGS7Iu345xwQ2hNqCTx9PTUzc6rL6t+qBXOLKx5LEFUOFO9Yy/Y7j94+85rObXNrWm1Wo3JycnYF3Wmgjzb7sLVIl+8HeeEcF4DCiwqPfNUPUiXNi8uLu6qM2jZ9eW1Gwa9+PDhw706yHXHdr/l8Tuf0z6gq7BWxQk+6PdO4Zzt7oe345wQzsecDtJzc3PhzmZPjo+PQxWH1IsXL8INg17oyUcKJ56w3f1+56toXQCoL4/HOfkl4Zwf1OHwfJDWEzry0lJVdcif5FFnWl7dIOmJ9+3u+Tuv6kwpHbS1HjzfDOyBSsnTzMB298XjcS64+QUmJydVceymfaAN762NwWi9aT3mzf7+fhyi3mw/8rbcomX1+r3xvN09f+dbrda9Zfa0/19cXNxbdms8bPd82fX998LzdhfPx7mm/rQ39i+lO7E9150EAAAA5JfWOdelqvxSJQAAAOBVESXnAAAAAHhaCwAAAFAMwjkAAABQCMI5AAAAUAjCOQAAAFAIwjkAAABQCMI5AAAAUAjCOQAAAFAIwjkAAABQCMI5AAAAUAjCOQAAAFAIwjkAAABQCMI5AAAAUAjCOQAAAFAIwjkAAABQCMI5AAAAUAjCOQAAAFCI5k1bfD0UzWYzvgIAAADG15Bjcl+GHs4BAACAOjg4OIivqi0uLsZXw0M4BwAAACrs7e013r17F9/d163fU1DnHAAAAKjwzz//xFcPdev3FIRzAAAAoALhHAAAACgE4RwAAAAoBOEcAAAAKMS///4bXz3Urd9T8LQWAAAAoMJff/0VX1X7/fff46vhIZwDAAAAhaBaCwAAAFAIwjkAAABQCMI5AAAAUAjCOQAAAFCERuP/AUvCSeAFTtygAAAAAElFTkSuQmCC;" vertex="1" parent="1">
          <mxGeometry x="393.75" y="777.7" width="385.25" height="92.3" as="geometry" />
        </mxCell>
        <mxCell id="q9S4o-dT0F2zTEYb0Q2K-148" value="" style="shape=image;verticalLabelPosition=bottom;labelBackgroundColor=default;verticalAlign=top;aspect=fixed;imageAspect=0;image=data:image/png,iVBORw0KGgoAAAANSUhEUgAAAtEAAAC3CAYAAADU+wJpAAAAAXNSR0IArs4c6QAAAARnQU1BAACxjwv8YQUAAAAJcEhZcwAADsMAAA7DAcdvqGQAABEhSURBVHhe7d29bhVJgwbgc+YyRiM0wlwDAQICAky02pUIDBHBJySYFEHikAQ06YAEExCBA6RdbQQEBIAIuAZsoRHiLmZYv4cu026Of8oHvrW7nkfqcXefM56p/ql+q7q6Pf28aQIAAOzbT91PAABgn4RoAACoJEQDAEAlIRoAACoJ0QAAUEmIBgCASkI0AABUEqIBAKCSEA0AAJVGG6IvXLgwm3Zz4sSJyXQ63XG6e/fu7HvzPhtOGxsbs+/+u6ytre3638364f/jcHrz5s3su3v9rsi2GP77/Snbcp7r16/P/X5/Ktt5N/v53n5/FwDAoprvib527dokf/l83nTz5s3Zd/rrXr9+PVuXn/31x48fn60/bJ48ebLt/7M/nT59uvvW/s37PZnev3/ffWO7e/fubfve0tLSN9u8bGcAgKPCcA4AAKgkRP9g84ZVlGEUkeEHGQpRhlSUaTi0Yvj5X3/91X0yDsNhHzsNxel/Z6+hG8Ntv9fwHgCA/RKif6CEuAxf6A+puHPnzuTMmTPbQvL6+vrk0aNHW99ZXl6enD9/vvv0S4C+dOnS7Hv5PENJbt261X169CVAv3jxYqv8mZ4/fz5b35cyl22ZbZHlnYJ02fbZ3uV3hiANAHwPzYfo+/fvb+ut7E+L+v3332dBbmVlpVszmZw6dWr28927d7OfRcYOF6urq7OQWIJ2lhMGy7jrjGXOuOL9SPieV7aDhsl5vytTgv5BpIzZB7dv3+7WfJGGRIJ1X8pctmW2RbbJTo2Jsu37462zjRPO+3cCAAAOwoOFuzxYuKiEtvLAXRmOkV7oeXZ6MDEhM4G6hO/i7Nmz3dzudnqw8NmzZ9036sz7XZn6DYUaKXf/3y9vTEnYHRqWuWyTeaE4Afzq1avd0hf5byVYv337tlsDAHAwhnP8QAnApac2PcIZhlHe7rEfnz596ubGrT8eOiE6oTo90Ysowz3K7y1T1n/48KH7FgDAwQjRP1DCYcJg6a09yCvlio8fP3Zz45Je5AznKK8MPEgP+c8//9zNbdcfD92f+kNnAAAOQoj+gTKUYzhMozYMlyEIr1696tZ8MVw+qsr2GAbhee+dHpY5wzKybeYNhUnj5eXLl93SV+mN9gdZAIBFCdE/UN6wkV7WIsM7MqyjVh66y+8pY39L7+0YnDx5cvbz6dOns5+RHvwMuxgaboMM1xg+kFjkYcyMq+4H5vK2D3/cBQBY1KhDdELUcEzssCcywWzedzIt+jq0DBtIT2n5fZlPOMzPvNJuv/LQXR4QzEOJ+T35meX92OntHJmGPbL9/9cyDf+c9/Dz/lTeJlIjvcgpS3/8cmRdtlUJzTFvG+z0QGOGzgzHRZfX6AEALGq6GSqkCgAAqGA4BwAAVBKiAQCgkhANAACVhGgAAKgkRAMAQCUhGgAAKgnRAABQSYgGAIBKQjQAAFQSogEAoJIQDQAAlYRoAACoJEQDAEAlIRoAACoJ0QAAUEmIBgCAStOHDx9+7ua/8a9//aubAwAAiunnTd38Nn/++acQDQAAc/z0H//5X90sAACwH7Mx0YI0AADs3yxE/+///PdsAQAA2Nu2t3PokQYAgL1tDecoAVqQBgCA3W0N5yhDOgztAACA3W0bziFAAwDA3raGcwAAAPuzNZwDAADYn58EaAAAqDN9+PDh3D/7Hf7sNwAAfGv6eVM3/43pdNrNAQDA0bVL5D2QXUM0AADwrW2vuAMAAPYmRAMAQCUhGgAAKgnRAABQaaEQfeHChcn169e7Jb6HbM+8FeXNmzfdmjbkWEq5M504caJb24Z+2TO1KMd7yr62ttatGb+Utb/fM+VYaMnw2N/Y2Og+Ga/Ub/0yl+nu3bvdN8atXOPK1NI5Pyz72I/33fLMsP47qsfBQiH62bNnk3v37nVLLKKEiLNnz06Wl5e7tW3IxePcuXOzV89kunr1ajONs5T9ypUrW2W/c+dOc0Eqsg2uXbvWLbUjZS77PlPq1FYkTPbP+0zHjx/vPh2v9+/fbytzptT5p06d6r4xXqWh0C/7pUuXmmg8lWtaKffr168n58+fn60bm73yTD7Pfh8eB/PC9mFnOMchcfr06dmBtLKy0q1px82bN2dTcfHixcmLFy+6pXFLufv7PGVvTS6saTjRjvQ6JUD0z/tWleCQa8DYffjwYRas+hKyPn361C2N1/3797d1OmZ/5xw4isFxL3vlmdu3b88aEX1PnjyZPH78uFs6OhYK0WlZtXQrhn+f1oZ0FDmn0ivbivRAPXjwQJhqzKtXryaXL1/ultqW4NDKOX/jxo1tPY6565a7Dy00IOb59ddfJ2/fvu2W2pG7McN9fvLkySN5R0JPNIfO06dPmwqS/XGhub3d0t2INBoePXrULbUnvVNl32dq4bZ2pJwJj/2ytzKEqy/bIXfdWjnnE5jTQ5meyOzz1dXVZoaEpsd9OO49PfMtWl9f7+a2S7g+aoRoDpX0ULx8+bKpIJlxsGVcWLTSC5993XIvVI7xst8z5fbm0tJS9+n4pReuX/4EymHIGLt0GLQ0lCn7uITn7POE6Vbqu9Tzt27d2tZwbKXRPGZCNIdGKpT0QLf0cNVQhjXkojLGcXJD2dceTP4qjYk8aNjCvo/h+P8Eq9Z65hKqWhrKlLsN6YUsDefU9WlEtNJ46jcaM6UT4dixY92n7dips+AoNqiEaA6FBOg8ZHEUb+dQL0ExF9N+r0yGNmS8ZOZb1UrPVMLDu3fvuqUvPn782M21Ic8TtfZGmufPn8/2fV9CZKvDGloaytM3r6Mo9cHw2DgKhGj+37UcoFOZ9INTLqzzHroYm5Rv2CuTQJEntDPfgmFjoZV9H3moMD3PfWlAtfSwYcqfB+1aMm9ccLbD8I0dLUjd3+pbiXIXsv/cU66BOf+P4vkgRB8SOYhKj1xa62fOnJnNt/D2k3KLr5S/TC2UPT0RubVVypwLit74NmQMdP94zwOWrez7NBQSIPrlz/ZooQERqdsSoo5iz9siMnwjb+Pp7/eMi26hNzbXuWG5xzqUZ688k/3dP/9zDcz5fxTPh+nnBbp9clCkBdni7QgAANq1UE90Whu//PJLtwQAAG04UIhOl3y64KOV228AAFAsNJwDAABa5MFCAACoJEQDAEAlIRoAACoJ0QAAUEmIBgCASkI0AABUEqIBAKCSEA0AAJWEaAAAqCREAwBAJSEaAAAqCdEAAFBJiAYAgEpCNAAAVBKiAQCg0vTzpm7+G9PptJsDAICja5fIeyC7hmgAAOBbhnMAAEAlIRoAACoJ0QAAUEmIBgCASguF6BMnTkzu3r3bLbGoCxcuzN6IUqaW9Mue46pFb968mZV/bW2tWzN+re9353y7+/769euzsue8b5H6zjE/BguF6Pfv309u3rzZLbGINEauXLkye/1Kpjt37sxOuBak7OfOndsq+9WrV2cnW2uy/69du9YtjV/r+9053+a+L+Hx7Nmzk+Xl5W5te9R3jvkx8Iq7Q2pjY2N2gj179qxb046U/fz587NGWitSwcaHDx9mFc3KyspsuSUt7vc+53x7+z6NptXV1cnp06e7NW1Q3znmx3LML9QTnY3R6q2oHy0X07TUW9XSra5Upg8ePHBXZ1OrQ3nCOd/uvm+J+u4rx/zR58HCQySNkjJeKrd9Wmydx9OnT5sKEwlPjx496pba1dp+D+f8Fy3u+1ap775wzI+DEH2I5DZuGS8VLbZSc2fj5cuXzYSJlPf48ePN3c4dam2/F875dvd9i9R3Xzjmx0OIPqRyqysX1JxsrchtvrTMWxoTmvLeu3evW2pTi/t9Huc8Y6e+c8yPjRDNoZCKpbWHLBKW1tfXt27nZ7p///7k0qVLs/kWtLjf+cK+b4v6zjE/RkL0IZEeqJxgRd6dmROthdterVYs2bflVn6Z8sqnJ0+ebN3eH7PWLyjOeWGiJeo7x/wYCdGHxIsXLyZLS0tbLfS8AqaVky0Pmgx7KDK19BL+FrW+353zbe77hKlS3ufPn0/OnDnTTNlb5pgf5zHvPdEAAFBJTzQAAFQSogEAoJIQDQAAlYRoAACoJEQDAEAlIRoAACoJ0QAAUEmIBgCASkI0AABUEqIBAKCSEA0AAJWEaAAAqCREAwBAJSEaAAAqCdEAAFBJiAYAgEpCNAAAVBKiAQCgkhANAACVhGgAAKgkRAMAQCUhGgAAKgnRAABQSYgGAIBKQvQhcv369cl0Ot2a1tbWuk/Gb1j2jY2N7pNxKuV98+ZNt2a7u3fvNnMMXLhwwb4fyDbId3IcjF22Q8qqvmtHS+f8bud7S8fBsKxjOd8XCtHZCNkwLK5cLD9//rw1Xbp0qYnKtRxDpdyvX7+enD9/frZubEpgOHv27GR5eblb+1UJT3Ht2rXZzzE7ceLE5Ny5c9uO++PHj3efjste+74v50QL+z+uXLnSTFmjpfpunlbO+b3O9+SnX3/9dWsbPHnyZLTHwZjzzXfviU4Lk3ofPnyYnWx9OfE+ffrULY3X/fv3J/fu3euWJpPTp0/PKpN5LfejLmVLBbKystKt2S4Xk3x+8+bNbs145SKS/dxCWWOvfV9ku+Q4yAV27HJxvXr1arfUhpbqu6GWzvm9zves72+HveqFo2zM+ebAITphOS2JVAhpbZXw/OzZs9lP6ty4cWO2PUtFmu2ZC2lOxBYlQLx9+7ZbYoxevXo1uXz5crdEkXqgH7LGKr1QDx48aKYRtZtW6jvn/M5yh2KsDcox55sDh+iE5dx+yG24tLZKeNYTfTClB/L27duzRsnq6moTF9JIi3Q49jMtV8YtIerx48ez471MrQ8PS/lTr7YgZX306FG31I6W6zvn/HYpe9kOMdYG5ZjzjQcLD4kyFjYHVznYMnasBWmA3bp1a6syyTSGsVLsrT8mMFP2+zBgtCJlzzTm27pFeqRavdPWen3nnP8qQbJshwx3yLEwRtnHKdsY840QfUikRbq+vr51UUlFm1s7rVQupSIpUy6wx44d6z5lrC5evNjNfZFKttW7EKkDWrn7lIcJWynrPC3Xd875+dJ4zp39jBsfmzHnGyH6kHj+/PmsIu1Lpdpq5fLixYsmeuRaluP93bt33dIXHz9+7Obakp6a1AFLS0tbvZPprSw9lmPqqUwvdC6opZyZ8mxNxkxmvkWt1HfO+TaNOd8sHKJbug31I80bJ5cW+vCJ1hbkNk9rT+y3KA8Y5RjvS5Bq8cGjXGCGvZN37tyZTaWncizSGzUsa3rgMhY8861pqb5zzn+V58f6b2TJfBqTY2xMjTrfbFZaC1laWkqt93lzI82Wy0/qlW1Zps2LSvfJuG1eQJsp9/r6+rayzivzvM83w1T36bikXP1yvn79uvtkfPaz7/uybca634dSB6jv2tDKOX+Qun7MxppvpvnHZoG+m7Suyps6AABgjL7bmOjy9CUAAIzdd++JBgCAsfN2DgAAqCREAwBAJSEaAAAqCdEAAFBJiAYAgEpCNAAAVBKiAQCgkhANAACVhGgAAKgkRAMAQCUhGgAAKgnRAABQSYgGAIBKQjQAAFQSogEAoJIQDQAAlaafN3Xz35hOp90cAAAcXbtE3gPZNUQDAMAYrK2tdXPzraysdHP7I0QDADB6jx8/nly+fLlb2m63z3ZiTDQAAKP3999/d3Pf2u2znQjRAACMnhANAACVhGgAAKgkRAMAQKV//vmnm/vWbp/txNs5AAAYvT/++KObm++3337r5vZHiAYAgEqGcwAAQCUhGgAAKgnRAABQSYgGAIBKQjQAAFQSogEAoJIQDQAAlYRoAACoJEQDAEAlIRoAACoJ0QAAUEmIBgCASkI0AABUEqIBAKCSEA0AAJWEaAAAqDKZ/B9p6qHMrY2X8QAAAABJRU5ErkJggg==;" vertex="1" parent="1">
          <mxGeometry x="424.5" y="290" width="371" height="94.16" as="geometry" />
        </mxCell>
        <mxCell id="q9S4o-dT0F2zTEYb0Q2K-149" value="" style="shape=image;verticalLabelPosition=bottom;labelBackgroundColor=default;verticalAlign=top;aspect=fixed;imageAspect=0;image=data:image/png,iVBORw0KGgoAAAANSUhEUgAAAtEAAAC3CAYAAADU+wJpAAAAAXNSR0IArs4c6QAAAARnQU1BAACxjwv8YQUAAAAJcEhZcwAADsMAAA7DAcdvqGQAABEhSURBVHhe7d29bhVJgwbgc+YyRiM0wlwDAQICAky02pUIDBHBJySYFEHikAQ06YAEExCBA6RdbQQEBIAIuAZsoRHiLmZYv4cu026Of8oHvrW7nkfqcXefM56p/ql+q7q6Pf28aQIAAOzbT91PAABgn4RoAACoJEQDAEAlIRoAACoJ0QAAUEmIBgCASkI0AABUEqIBAKCSEA0AAJVGG6IvXLgwm3Zz4sSJyXQ63XG6e/fu7HvzPhtOGxsbs+/+u6ytre3638364f/jcHrz5s3su3v9rsi2GP77/Snbcp7r16/P/X5/Ktt5N/v53n5/FwDAoprvib527dokf/l83nTz5s3Zd/rrXr9+PVuXn/31x48fn60/bJ48ebLt/7M/nT59uvvW/s37PZnev3/ffWO7e/fubfve0tLSN9u8bGcAgKPCcA4AAKgkRP9g84ZVlGEUkeEHGQpRhlSUaTi0Yvj5X3/91X0yDsNhHzsNxel/Z6+hG8Ntv9fwHgCA/RKif6CEuAxf6A+puHPnzuTMmTPbQvL6+vrk0aNHW99ZXl6enD9/vvv0S4C+dOnS7Hv5PENJbt261X169CVAv3jxYqv8mZ4/fz5b35cyl22ZbZHlnYJ02fbZ3uV3hiANAHwPzYfo+/fvb+ut7E+L+v3332dBbmVlpVszmZw6dWr28927d7OfRcYOF6urq7OQWIJ2lhMGy7jrjGXOuOL9SPieV7aDhsl5vytTgv5BpIzZB7dv3+7WfJGGRIJ1X8pctmW2RbbJTo2Jsu37462zjRPO+3cCAAAOwoOFuzxYuKiEtvLAXRmOkV7oeXZ6MDEhM4G6hO/i7Nmz3dzudnqw8NmzZ9036sz7XZn6DYUaKXf/3y9vTEnYHRqWuWyTeaE4Afzq1avd0hf5byVYv337tlsDAHAwhnP8QAnApac2PcIZhlHe7rEfnz596ubGrT8eOiE6oTo90Ysowz3K7y1T1n/48KH7FgDAwQjRP1DCYcJg6a09yCvlio8fP3Zz45Je5AznKK8MPEgP+c8//9zNbdcfD92f+kNnAAAOQoj+gTKUYzhMozYMlyEIr1696tZ8MVw+qsr2GAbhee+dHpY5wzKybeYNhUnj5eXLl93SV+mN9gdZAIBFCdE/UN6wkV7WIsM7MqyjVh66y+8pY39L7+0YnDx5cvbz6dOns5+RHvwMuxgaboMM1xg+kFjkYcyMq+4H5vK2D3/cBQBY1KhDdELUcEzssCcywWzedzIt+jq0DBtIT2n5fZlPOMzPvNJuv/LQXR4QzEOJ+T35meX92OntHJmGPbL9/9cyDf+c9/Dz/lTeJlIjvcgpS3/8cmRdtlUJzTFvG+z0QGOGzgzHRZfX6AEALGq6GSqkCgAAqGA4BwAAVBKiAQCgkhANAACVhGgAAKgkRAMAQCUhGgAAKgnRAABQSYgGAIBKQjQAAFQSogEAoJIQDQAAlYRoAACoJEQDAEAlIRoAACoJ0QAAUEmIBgCAStOHDx9+7ua/8a9//aubAwAAiunnTd38Nn/++acQDQAAc/z0H//5X90sAACwH7Mx0YI0AADs3yxE/+///PdsAQAA2Nu2t3PokQYAgL1tDecoAVqQBgCA3W0N5yhDOgztAACA3W0bziFAAwDA3raGcwAAAPuzNZwDAADYn58EaAAAqDN9+PDh3D/7Hf7sNwAAfGv6eVM3/43pdNrNAQDA0bVL5D2QXUM0AADwrW2vuAMAAPYmRAMAQCUhGgAAKgnRAABQaaEQfeHChcn169e7Jb6HbM+8FeXNmzfdmjbkWEq5M504caJb24Z+2TO1KMd7yr62ttatGb+Utb/fM+VYaMnw2N/Y2Og+Ga/Ub/0yl+nu3bvdN8atXOPK1NI5Pyz72I/33fLMsP47qsfBQiH62bNnk3v37nVLLKKEiLNnz06Wl5e7tW3IxePcuXOzV89kunr1ajONs5T9ypUrW2W/c+dOc0Eqsg2uXbvWLbUjZS77PlPq1FYkTPbP+0zHjx/vPh2v9+/fbytzptT5p06d6r4xXqWh0C/7pUuXmmg8lWtaKffr168n58+fn60bm73yTD7Pfh8eB/PC9mFnOMchcfr06dmBtLKy0q1px82bN2dTcfHixcmLFy+6pXFLufv7PGVvTS6saTjRjvQ6JUD0z/tWleCQa8DYffjwYRas+hKyPn361C2N1/3797d1OmZ/5xw4isFxL3vlmdu3b88aEX1PnjyZPH78uFs6OhYK0WlZtXQrhn+f1oZ0FDmn0ivbivRAPXjwQJhqzKtXryaXL1/ultqW4NDKOX/jxo1tPY6565a7Dy00IOb59ddfJ2/fvu2W2pG7McN9fvLkySN5R0JPNIfO06dPmwqS/XGhub3d0t2INBoePXrULbUnvVNl32dq4bZ2pJwJj/2ytzKEqy/bIXfdWjnnE5jTQ5meyOzz1dXVZoaEpsd9OO49PfMtWl9f7+a2S7g+aoRoDpX0ULx8+bKpIJlxsGVcWLTSC5993XIvVI7xst8z5fbm0tJS9+n4pReuX/4EymHIGLt0GLQ0lCn7uITn7POE6Vbqu9Tzt27d2tZwbKXRPGZCNIdGKpT0QLf0cNVQhjXkojLGcXJD2dceTP4qjYk8aNjCvo/h+P8Eq9Z65hKqWhrKlLsN6YUsDefU9WlEtNJ46jcaM6UT4dixY92n7dips+AoNqiEaA6FBOg8ZHEUb+dQL0ExF9N+r0yGNmS8ZOZb1UrPVMLDu3fvuqUvPn782M21Ic8TtfZGmufPn8/2fV9CZKvDGloaytM3r6Mo9cHw2DgKhGj+37UcoFOZ9INTLqzzHroYm5Rv2CuTQJEntDPfgmFjoZV9H3moMD3PfWlAtfSwYcqfB+1aMm9ccLbD8I0dLUjd3+pbiXIXsv/cU66BOf+P4vkgRB8SOYhKj1xa62fOnJnNt/D2k3KLr5S/TC2UPT0RubVVypwLit74NmQMdP94zwOWrez7NBQSIPrlz/ZooQERqdsSoo5iz9siMnwjb+Pp7/eMi26hNzbXuWG5xzqUZ688k/3dP/9zDcz5fxTPh+nnBbp9clCkBdni7QgAANq1UE90Whu//PJLtwQAAG04UIhOl3y64KOV228AAFAsNJwDAABa5MFCAACoJEQDAEAlIRoAACoJ0QAAUEmIBgCASkI0AABUEqIBAKCSEA0AAJWEaAAAqCREAwBAJSEaAAAqCdEAAFBJiAYAgEpCNAAAVBKiAQCg0vTzpm7+G9PptJsDAICja5fIeyC7hmgAAOBbhnMAAEAlIRoAACoJ0QAAUEmIBgCASguF6BMnTkzu3r3bLbGoCxcuzN6IUqaW9Mue46pFb968mZV/bW2tWzN+re9353y7+/769euzsue8b5H6zjE/BguF6Pfv309u3rzZLbGINEauXLkye/1Kpjt37sxOuBak7OfOndsq+9WrV2cnW2uy/69du9YtjV/r+9053+a+L+Hx7Nmzk+Xl5W5te9R3jvkx8Iq7Q2pjY2N2gj179qxb046U/fz587NGWitSwcaHDx9mFc3KyspsuSUt7vc+53x7+z6NptXV1cnp06e7NW1Q3znmx3LML9QTnY3R6q2oHy0X07TUW9XSra5Upg8ePHBXZ1OrQ3nCOd/uvm+J+u4rx/zR58HCQySNkjJeKrd9Wmydx9OnT5sKEwlPjx496pba1dp+D+f8Fy3u+1ap775wzI+DEH2I5DZuGS8VLbZSc2fj5cuXzYSJlPf48ePN3c4dam2/F875dvd9i9R3Xzjmx0OIPqRyqysX1JxsrchtvrTMWxoTmvLeu3evW2pTi/t9Huc8Y6e+c8yPjRDNoZCKpbWHLBKW1tfXt27nZ7p///7k0qVLs/kWtLjf+cK+b4v6zjE/RkL0IZEeqJxgRd6dmROthdterVYs2bflVn6Z8sqnJ0+ebN3eH7PWLyjOeWGiJeo7x/wYCdGHxIsXLyZLS0tbLfS8AqaVky0Pmgx7KDK19BL+FrW+353zbe77hKlS3ufPn0/OnDnTTNlb5pgf5zHvPdEAAFBJTzQAAFQSogEAoJIQDQAAlYRoAACoJEQDAEAlIRoAACoJ0QAAUEmIBgCASkI0AABUEqIBAKCSEA0AAJWEaAAAqCREAwBAJSEaAAAqCdEAAFBJiAYAgEpCNAAAVBKiAQCgkhANAACVhGgAAKgkRAMAQCUhGgAAKgnRAABQSYgGAIBKQvQhcv369cl0Ot2a1tbWuk/Gb1j2jY2N7pNxKuV98+ZNt2a7u3fvNnMMXLhwwb4fyDbId3IcjF22Q8qqvmtHS+f8bud7S8fBsKxjOd8XCtHZCNkwLK5cLD9//rw1Xbp0qYnKtRxDpdyvX7+enD9/frZubEpgOHv27GR5eblb+1UJT3Ht2rXZzzE7ceLE5Ny5c9uO++PHj3efjste+74v50QL+z+uXLnSTFmjpfpunlbO+b3O9+SnX3/9dWsbPHnyZLTHwZjzzXfviU4Lk3ofPnyYnWx9OfE+ffrULY3X/fv3J/fu3euWJpPTp0/PKpN5LfejLmVLBbKystKt2S4Xk3x+8+bNbs145SKS/dxCWWOvfV9ku+Q4yAV27HJxvXr1arfUhpbqu6GWzvm9zves72+HveqFo2zM+ebAITphOS2JVAhpbZXw/OzZs9lP6ty4cWO2PUtFmu2ZC2lOxBYlQLx9+7ZbYoxevXo1uXz5crdEkXqgH7LGKr1QDx48aKYRtZtW6jvn/M5yh2KsDcox55sDh+iE5dx+yG24tLZKeNYTfTClB/L27duzRsnq6moTF9JIi3Q49jMtV8YtIerx48ez471MrQ8PS/lTr7YgZX306FG31I6W6zvn/HYpe9kOMdYG5ZjzjQcLD4kyFjYHVznYMnasBWmA3bp1a6syyTSGsVLsrT8mMFP2+zBgtCJlzzTm27pFeqRavdPWen3nnP8qQbJshwx3yLEwRtnHKdsY840QfUikRbq+vr51UUlFm1s7rVQupSIpUy6wx44d6z5lrC5evNjNfZFKttW7EKkDWrn7lIcJWynrPC3Xd875+dJ4zp39jBsfmzHnGyH6kHj+/PmsIu1Lpdpq5fLixYsmeuRaluP93bt33dIXHz9+7Obakp6a1AFLS0tbvZPprSw9lmPqqUwvdC6opZyZ8mxNxkxmvkWt1HfO+TaNOd8sHKJbug31I80bJ5cW+vCJ1hbkNk9rT+y3KA8Y5RjvS5Bq8cGjXGCGvZN37tyZTaWncizSGzUsa3rgMhY8861pqb5zzn+V58f6b2TJfBqTY2xMjTrfbFZaC1laWkqt93lzI82Wy0/qlW1Zps2LSvfJuG1eQJsp9/r6+rayzivzvM83w1T36bikXP1yvn79uvtkfPaz7/uybca634dSB6jv2tDKOX+Qun7MxppvpvnHZoG+m7Suyps6AABgjL7bmOjy9CUAAIzdd++JBgCAsfN2DgAAqCREAwBAJSEaAAAqCdEAAFBJiAYAgEpCNAAAVBKiAQCgkhANAACVhGgAAKgkRAMAQCUhGgAAKgnRAABQSYgGAIBKQjQAAFQSogEAoJIQDQAAlaafN3Xz35hOp90cAAAcXbtE3gPZNUQDAMAYrK2tdXPzraysdHP7I0QDADB6jx8/nly+fLlb2m63z3ZiTDQAAKP3999/d3Pf2u2znQjRAACMnhANAACVhGgAAKgkRAMAQKV//vmnm/vWbp/txNs5AAAYvT/++KObm++3337r5vZHiAYAgEqGcwAAQCUhGgAAKgnRAABQSYgGAIBKQjQAAFQSogEAoJIQDQAAlYRoAACoJEQDAEAlIRoAACoJ0QAAUEmIBgCASkI0AABUEqIBAKCSEA0AAJWEaAAAqDKZ/B9p6qHMrY2X8QAAAABJRU5ErkJggg==;" vertex="1" parent="1">
          <mxGeometry x="414" y="-210" width="371" height="94.16" as="geometry" />
        </mxCell>
      </root>
    </mxGraphModel>
  </diagram>
</mxfile>
